<svg width="27" height="27" viewBox="0 0 27 27" fill="none" xmlns="http://www.w3.org/2000/svg">
<path d="M6.99172 5.59938C6.85913 5.59938 6.75065 5.70787 6.75065 5.84045V7.28688C6.75065 7.41947 6.85913 7.52796 6.99172 7.52796H18.5631C18.6957 7.52796 18.8042 7.41947 18.8042 7.28688V5.84045C18.8042 5.70787 18.6957 5.59938 18.5631 5.59938H6.99172ZM18.5364 9.93867H6.99172C6.85913 9.93867 6.75065 10.0472 6.75065 10.1797V11.6262C6.75065 11.7588 6.85913 11.8672 6.99172 11.8672H18.5364C18.6689 11.8672 18.7774 11.7588 18.7774 11.6262V10.1797C18.7774 10.0472 18.6689 9.93867 18.5364 9.93867ZM11.0899 23.74H4.33993V2.52572H21.2149V17.1686C21.2149 17.3012 21.3234 17.4097 21.456 17.4097H23.1435C23.2761 17.4097 23.3846 17.3012 23.3846 17.1686V1.32036C23.3846 0.786994 22.9537 0.356079 22.4203 0.356079H3.13457C2.6012 0.356079 2.17029 0.786994 2.17029 1.32036V24.9454C2.17029 25.4787 2.6012 25.9097 3.13457 25.9097H11.0899C11.2225 25.9097 11.331 25.8012 11.331 25.6686V23.9811C11.331 23.8485 11.2225 23.74 11.0899 23.74Z" fill="white"/>
<path d="M7.23279 14.0713H12.7774C12.91 14.0713 13.0185 14.1798 13.0185 14.3124V15.7588C13.0185 15.8914 12.91 15.9999 12.7774 15.9999H7.23279C7.1002 15.9999 6.99172 15.8914 6.99172 15.7588V14.3124C6.99172 14.1798 7.1002 14.0713 7.23279 14.0713Z" fill="white"/>
<path d="M14.3385 19.2286V25.7713C14.3385 25.9238 14.2647 26 14.1171 26H13.2213C13.0737 26 13 25.9238 13 25.7713V19.2286C13 19.0762 13.0737 19 13.2213 19H14.1171C14.2647 19 14.3385 19.0762 14.3385 19.2286Z" fill="white"/>
<path d="M16.8742 26H15.9784C15.8308 26 15.7571 25.9238 15.7571 25.7713V19.2286C15.7571 19.0762 15.8308 19 15.9784 19H18.4867C19.0348 19 19.4634 19.156 19.7725 19.4681C20.0817 19.7802 20.2363 20.2192 20.2363 20.7853V21.6345C20.2363 22.4546 19.9236 22.9989 19.2983 23.2675V23.311L20.426 25.7387C20.4892 25.9129 20.4295 26 20.2468 26H19.3931C19.2667 26 19.1753 25.9854 19.1191 25.9564C19.0629 25.9274 19.0172 25.8657 18.9821 25.7713L17.9282 23.4199H17.222C17.1377 23.4199 17.0956 23.4598 17.0956 23.5396V25.7713C17.0956 25.9238 17.0218 26 16.8742 26ZM17.2115 22.3095H18.2443C18.4692 22.3095 18.6343 22.2623 18.7397 22.1679C18.8451 22.0663 18.8978 21.9067 18.8978 21.6889V20.8398C18.8978 20.6148 18.8451 20.4515 18.7397 20.3499C18.6343 20.2483 18.4692 20.1975 18.2443 20.1975H17.2115C17.1342 20.1975 17.0956 20.2374 17.0956 20.3172V22.1897C17.0956 22.2695 17.1342 22.3095 17.2115 22.3095Z" fill="white"/>
<path d="M21.3521 24.2146V23.9969C21.3521 23.8444 21.4259 23.7682 21.5734 23.7682H22.4693C22.6168 23.7682 22.6906 23.8444 22.6906 23.9969V24.0839C22.6906 24.3597 22.7433 24.5484 22.8487 24.65C22.9541 24.7516 23.1473 24.8025 23.4284 24.8025H23.9237C24.1977 24.8025 24.3874 24.748 24.4928 24.6392C24.6053 24.5303 24.6615 24.3271 24.6615 24.0295V23.8989C24.6615 23.6884 24.5772 23.5287 24.4085 23.4199C24.2469 23.3037 24.0432 23.2348 23.7972 23.213C23.5513 23.1913 23.2843 23.1513 22.9963 23.0933C22.7152 23.028 22.4517 22.9481 22.2058 22.8538C21.9599 22.7522 21.7526 22.5598 21.584 22.2768C21.4224 21.9865 21.3416 21.6163 21.3416 21.1664V20.7853C21.3416 20.2192 21.4962 19.7802 21.8053 19.4681C22.1145 19.156 22.5431 19 23.0911 19H24.145C24.7001 19 25.1322 19.156 25.4414 19.4681C25.7505 19.7802 25.9051 20.2192 25.9051 20.7853V20.9922C25.9051 21.1446 25.8313 21.2208 25.6838 21.2208H24.7879C24.6404 21.2208 24.5666 21.1446 24.5666 20.9922V20.9269C24.5666 20.6438 24.5139 20.4515 24.4085 20.3499C24.3031 20.2483 24.1099 20.1975 23.8289 20.1975H23.4178C23.1298 20.1975 22.933 20.2555 22.8276 20.3717C22.7293 20.4805 22.6801 20.6983 22.6801 21.0248V21.2317C22.6801 21.5728 22.9681 21.7688 23.5443 21.8196C24.1415 21.8704 24.672 21.9937 25.1357 22.1897C25.3817 22.2986 25.5854 22.4945 25.747 22.7776C25.9156 23.0534 26 23.409 26 23.8444V24.2146C26 24.7807 25.8454 25.2198 25.5362 25.5318C25.2271 25.8439 24.7985 26 24.2504 26H23.1016C22.5536 26 22.125 25.8439 21.8158 25.5318C21.5067 25.2198 21.3521 24.7807 21.3521 24.2146Z" fill="white"/>
</svg>
