<svg width="20" height="20" viewBox="0 0 20 20" fill="none" xmlns="http://www.w3.org/2000/svg">
<path d="M9.31484 1.11823C9.43573 0.961219 9.67227 0.960471 9.79415 1.11671L13.2405 5.5349C13.3958 5.73399 13.254 6.02458 13.0015 6.02458H11.082C10.9146 6.02458 10.7788 6.16032 10.7788 6.32777V12.8112C10.7788 12.9786 10.6431 13.1144 10.4756 13.1144H8.6687C8.50124 13.1144 8.3655 12.9786 8.3655 12.8112V6.32777C8.3655 6.16032 8.22975 6.02458 8.0623 6.02458H6.15338C5.90176 6.02458 5.75964 5.73578 5.91314 5.53641L9.31484 1.11823Z" fill="black"/>
<path d="M4.52663 11.218C4.52663 11.0505 4.39089 10.9148 4.22344 10.9148H2.3032C2.13575 10.9148 2 11.0505 2 11.218V18.6968C2 18.8643 2.13575 19 2.3032 19H16.8566C17.0241 19 17.1598 18.8643 17.1598 18.6968V11.218C17.1598 11.0505 17.0241 10.9148 16.8566 10.9148H14.9364C14.7689 10.9148 14.6332 11.0505 14.6332 11.218V16.1702C14.6332 16.3376 14.4974 16.4734 14.33 16.4734H4.82983C4.66238 16.4734 4.52663 16.3376 4.52663 16.1702V11.218Z" fill="black"/>
</svg>
